<svg t="1638529258473" class="icon" viewBox="0 0 1024 1024" version="1.1" xmlns="http://www.w3.org/2000/svg" p-id="1865" width="200" height="200"><path d="M893.62 850.601H130.38c-60.045 0-108.912-48.867-108.912-108.912V282.311c0-60.045 48.867-108.912 108.912-108.912h763.257c60.045 0 108.912 48.867 108.912 108.912v459.378c-0.017 60.045-48.867 108.912-108.93 108.912z m-763.24-607.74c-21.752 0-39.449 17.698-39.449 39.45v459.378c0 21.752 17.697 39.45 39.45 39.45h763.256c21.752 0 39.449-17.698 39.449-39.45V282.311c0-21.752-17.697-39.45-39.45-39.45H130.38z" p-id="1866" fill="#777777"></path></svg>